<svg xmlns="http://www.w3.org/2000/svg" width="360" height="80" viewBox="0 0 360 80" role="img" aria-label="저장소 둘러보기"><title>저장소 둘러보기</title><path fill="#0D1117" d="M12 0H348A12 12 0 0 1 360 12V68A12 12 0 0 1 348 80H12A12 12 0 0 1 0 68V12A12 12 0 0 1 12 0Z"/><rect x="24.5" y="16.5" width="184" height="47" rx="5.5" fill="none" stroke="#EDEDEA" stroke-opacity=".55"/><path fill="#EDEDEA" transform="translate(44 32) scale(0.6667)" d="M12 .297c-6.63 0-12 5.373-12 12 0 5.303 3.438 9.8 8.205 11.385.6.113.82-.258.82-.577 0-.285-.01-1.04-.015-2.04-3.338.724-4.042-1.61-4.042-1.61C4.422 18.07 3.633 17.7 3.633 17.7c-1.087-.744.084-.729.084-.729 1.205.084 1.838 1.236 1.838 1.236 1.07 1.835 2.809 1.305 3.495.998.108-.776.417-1.305.76-1.605-2.665-.3-5.466-1.332-5.466-5.93 0-1.31.465-2.38 1.235-3.22-.135-.303-.54-1.523.105-3.176 0 0 1.005-.322 3.3 1.23.96-.267 1.98-.399 3-.405 1.02.006 2.04.138 3 .405 2.28-1.552 3.285-1.23 3.285-1.23.645 1.653.24 2.873.12 3.176.765.84 1.23 1.91 1.23 3.22 0 4.61-2.805 5.625-5.475 5.92.42.36.81 1.096.81 2.22 0 1.606-.015 2.896-.015 3.286 0 .315.21.69.825.57C20.565 22.092 24 17.592 24 12.297c0-6.627-5.373-12-12-12"/><path fill="#EDEDEA" d="M81.54 33.26L79.92 33.26L79.92 37.95L77.37 37.95L77.37 39.28L79.92 39.28L79.92 46.52L81.54 46.52M75.3 36.78L75.3 35.9L78.14 35.9L78.14 34.57L70.81 34.57L70.81 35.9L73.65 35.9L73.65 36.78C73.63 39.19 72.39 41.71 70.26 42.71L71.25 43.98C72.78 43.21 73.9 41.63 74.5 39.77C75.07 41.52 76.17 42.99 77.71 43.72L78.67 42.42C76.53 41.49 75.3 39.06 75.3 36.78M88 35.65L88 35.5L90.75 35.5L90.75 34.18L83.56 34.18L83.56 35.5L86.36 35.5L86.36 35.66C86.36 37.42 85.25 39.14 83.11 39.84L83.93 41.13C85.52 40.59 86.64 39.49 87.22 38.1C87.8 39.3 88.86 40.24 90.34 40.7L91.12 39.43C89.05 38.8 88 37.28 88 35.65M93.7 33.26L92.07 33.26L92.07 41.16L93.7 41.16L93.7 37.77L95.54 37.77L95.54 36.44L93.7 36.44M89.39 41.45C86.62 41.45 84.91 42.37 84.91 43.95C84.91 45.55 86.62 46.49 89.39 46.49C92.13 46.49 93.81 45.55 93.83 43.95C93.81 42.37 92.13 41.45 89.39 41.45M89.39 42.72C91.21 42.72 92.22 43.15 92.22 43.95C92.22 44.78 91.21 45.21 89.39 45.21C87.57 45.21 86.53 44.78 86.53 43.95C86.53 43.15 87.57 42.72 89.39 42.72M108.17 43.54L102.86 43.54L102.86 40.48L101.25 40.48L101.25 43.54L96.07 43.54L96.07 44.86L108.17 44.86M102.91 35.03L102.91 34.07L101.18 34.07L101.18 35.03C101.16 37.03 99.19 39.02 96.42 39.46L97.12 40.81C99.35 40.4 101.16 39.09 102.04 37.36C102.92 39.1 104.75 40.38 106.99 40.81L107.7 39.46C104.91 39.02 102.91 37.04 102.91 35.03M122.94 36.48L115.45 36.48L115.45 35.05L122.82 35.05L122.82 33.73L113.83 33.73L113.83 37.77L122.94 37.77M124.36 38.61L112.29 38.61L112.29 39.9L117.51 39.9L117.51 40.92L113.71 40.92L113.71 42.12L121.26 42.12L121.26 43L113.73 43L113.73 46.37L123.22 46.37L123.22 45.13L115.32 45.13L115.32 44.15L122.85 44.15L122.85 40.92L119.12 40.92L119.12 39.9L124.36 39.9M136.19 33.26L134.57 33.26L134.57 38.14L132.3 38.14L132.3 39.47L134.57 39.47L134.57 46.52L136.19 46.52M131.54 34.42L125.54 34.42L125.54 35.74L129.94 35.74L129.94 37.95L125.59 37.95L125.59 43.41L126.64 43.41C128.93 43.41 130.69 43.34 132.66 42.99L132.53 41.66C130.75 41.98 129.16 42.04 127.2 42.05L127.2 39.27L131.54 39.27M150.02 43.57L144.74 43.57L144.74 41L148.64 41L148.64 34.14L147.02 34.14L147.02 36.31L140.88 36.31L140.88 34.14L139.25 34.14L139.25 41L143.13 41L143.13 43.57L137.92 43.57L137.92 44.91L150.02 44.91M140.88 39.68L140.88 37.61L147.02 37.61L147.02 39.68M161.79 33.26L160.15 33.26L160.15 46.5L161.79 46.5M157.84 34.67L151.49 34.67L151.49 35.96L156.18 35.96C155.9 38.97 154.28 41.21 150.82 42.86L151.67 44.16C156.31 41.96 157.84 38.61 157.84 34.67"/><path d="M177.26 40H188.26M183.76 35.5L188.26 40L183.76 44.5" stroke="#DC8570" stroke-width="1.5" fill="none" stroke-linecap="square"/></svg>
